<svg width="243" height="240" viewBox="0 0 243 240" fill="none" xmlns="http://www.w3.org/2000/svg">
<g clip-path="url(#clip0_6_3)">
<g filter="url(#filter0_d_6_3)">
<path opacity="0.04" d="M205 0H10C4.47715 0 0 4.47715 0 10V206C0 211.523 4.47715 216 10 216H205C210.523 216 215 211.523 215 206V10C215 4.47715 210.523 0 205 0Z" fill="#2F901F"/>
<path opacity="0.48" d="M232.5 100.5H114.5C108.977 100.5 104.5 104.977 104.5 110.5V229.5C104.5 235.023 108.977 239.5 114.5 239.5H232.5C238.023 239.5 242.5 235.023 242.5 229.5V110.5C242.5 104.977 238.023 100.5 232.5 100.5Z" stroke="#3FC80F" stroke-opacity="0.46"/>
<path d="M34.5 182C35.8807 182 37 183.119 37 184.5C37 185.881 35.8807 187 34.5 187C33.1193 187 32 185.881 32 184.5C32 183.119 33.1193 182 34.5 182ZM61.5 182C62.8807 182 64 183.119 64 184.5C64 185.881 62.8807 187 61.5 187C60.1193 187 59 185.881 59 184.5C59 183.119 60.1193 182 61.5 182ZM91.5 182C92.8807 182 94 183.119 94 184.5C94 185.881 92.8807 187 91.5 187C90.1193 187 89 185.881 89 184.5C89 183.119 90.1193 182 91.5 182ZM123.5 182C124.881 182 126 183.119 126 184.5C126 185.881 124.881 187 123.5 187C122.119 187 121 185.881 121 184.5C121 183.119 122.119 182 123.5 182ZM153.5 182C154.881 182 156 183.119 156 184.5C156 185.881 154.881 187 153.5 187C152.119 187 151 185.881 151 184.5C151 183.119 152.119 182 153.5 182ZM180.5 182C181.881 182 183 183.119 183 184.5C183 185.881 181.881 187 180.5 187C179.119 187 178 185.881 178 184.5C178 183.119 179.119 182 180.5 182ZM34.5 154C35.8807 154 37 155.119 37 156.5C37 157.881 35.8807 159 34.5 159C33.1193 159 32 157.881 32 156.5C32 155.119 33.1193 154 34.5 154ZM61.5 154C62.8807 154 64 155.119 64 156.5C64 157.881 62.8807 159 61.5 159C60.1193 159 59 157.881 59 156.5C59 155.119 60.1193 154 61.5 154ZM91.5 154C92.8807 154 94 155.119 94 156.5C94 157.881 92.8807 159 91.5 159C90.1193 159 89 157.881 89 156.5C89 155.119 90.1193 154 91.5 154ZM123.5 154C124.881 154 126 155.119 126 156.5C126 157.881 124.881 159 123.5 159C122.119 159 121 157.881 121 156.5C121 155.119 122.119 154 123.5 154ZM153.5 154C154.881 154 156 155.119 156 156.5C156 157.881 154.881 159 153.5 159C152.119 159 151 157.881 151 156.5C151 155.119 152.119 154 153.5 154ZM180.5 154C181.881 154 183 155.119 183 156.5C183 157.881 181.881 159 180.5 159C179.119 159 178 157.881 178 156.5C178 155.119 179.119 154 180.5 154ZM34.5 124C35.8807 124 37 125.119 37 126.5C37 127.881 35.8807 129 34.5 129C33.1193 129 32 127.881 32 126.5C32 125.119 33.1193 124 34.5 124ZM61.5 124C62.8807 124 64 125.119 64 126.5C64 127.881 62.8807 129 61.5 129C60.1193 129 59 127.881 59 126.5C59 125.119 60.1193 124 61.5 124ZM91.5 124C92.8807 124 94 125.119 94 126.5C94 127.881 92.8807 129 91.5 129C90.1193 129 89 127.881 89 126.5C89 125.119 90.1193 124 91.5 124ZM123.5 124C124.881 124 126 125.119 126 126.5C126 127.881 124.881 129 123.5 129C122.119 129 121 127.881 121 126.5C121 125.119 122.119 124 123.5 124ZM153.5 124C154.881 124 156 125.119 156 126.5C156 127.881 154.881 129 153.5 129C152.119 129 151 127.881 151 126.5C151 125.119 152.119 124 153.5 124ZM180.5 124C181.881 124 183 125.119 183 126.5C183 127.881 181.881 129 180.5 129C179.119 129 178 127.881 178 126.5C178 125.119 179.119 124 180.5 124ZM34.5 94C35.8807 94 37 95.1193 37 96.5C37 97.8807 35.8807 99 34.5 99C33.1193 99 32 97.8807 32 96.5C32 95.1193 33.1193 94 34.5 94ZM153.5 94C154.881 94 156 95.1193 156 96.5C156 97.8807 154.881 99 153.5 99C152.119 99 151 97.8807 151 96.5C151 95.1193 152.119 94 153.5 94ZM91.5 94C92.8807 94 94 95.1193 94 96.5C94 97.8807 92.8807 99 91.5 99C90.1193 99 89 97.8807 89 96.5C89 95.1193 90.1193 94 91.5 94ZM180.5 94C181.881 94 183 95.1193 183 96.5C183 97.8807 181.881 99 180.5 99C179.119 99 178 97.8807 178 96.5C178 95.1193 179.119 94 180.5 94ZM61.5 94C62.8807 94 64 95.1193 64 96.5C64 97.8807 62.8807 99 61.5 99C60.1193 99 59 97.8807 59 96.5C59 95.1193 60.1193 94 61.5 94ZM123.5 94C124.881 94 126 95.1193 126 96.5C126 97.8807 124.881 99 123.5 99C122.119 99 121 97.8807 121 96.5C121 95.1193 122.119 94 123.5 94ZM34.5 64C35.8807 64 37 65.1193 37 66.5C37 67.8807 35.8807 69 34.5 69C33.1193 69 32 67.8807 32 66.5C32 65.1193 33.1193 64 34.5 64ZM61.5 64C62.8807 64 64 65.1193 64 66.5C64 67.8807 62.8807 69 61.5 69C60.1193 69 59 67.8807 59 66.5C59 65.1193 60.1193 64 61.5 64ZM91.5 64C92.8807 64 94 65.1193 94 66.5C94 67.8807 92.8807 69 91.5 69C90.1193 69 89 67.8807 89 66.5C89 65.1193 90.1193 64 91.5 64ZM123.5 64C124.881 64 126 65.1193 126 66.5C126 67.8807 124.881 69 123.5 69C122.119 69 121 67.8807 121 66.5C121 65.1193 122.119 64 123.5 64ZM153.5 64C154.881 64 156 65.1193 156 66.5C156 67.8807 154.881 69 153.5 69C152.119 69 151 67.8807 151 66.5C151 65.1193 152.119 64 153.5 64ZM180.5 64C181.881 64 183 65.1193 183 66.5C183 67.8807 181.881 69 180.5 69C179.119 69 178 67.8807 178 66.5C178 65.1193 179.119 64 180.5 64ZM34.5 37C35.8807 37 37 38.1193 37 39.5C37 40.8807 35.8807 42 34.5 42C33.1193 42 32 40.8807 32 39.5C32 38.1193 33.1193 37 34.5 37ZM61.5 37C62.8807 37 64 38.1193 64 39.5C64 40.8807 62.8807 42 61.5 42C60.1193 42 59 40.8807 59 39.5C59 38.1193 60.1193 37 61.5 37ZM91.5 37C92.8807 37 94 38.1193 94 39.5C94 40.8807 92.8807 42 91.5 42C90.1193 42 89 40.8807 89 39.5C89 38.1193 90.1193 37 91.5 37ZM123.5 37C124.881 37 126 38.1193 126 39.5C126 40.8807 124.881 42 123.5 42C122.119 42 121 40.8807 121 39.5C121 38.1193 122.119 37 123.5 37ZM153.5 37C154.881 37 156 38.1193 156 39.5C156 40.8807 154.881 42 153.5 42C152.119 42 151 40.8807 151 39.5C151 38.1193 152.119 37 153.5 37ZM180.5 37C181.881 37 183 38.1193 183 39.5C183 40.8807 181.881 42 180.5 42C179.119 42 178 40.8807 178 39.5C178 38.1193 179.119 37 180.5 37Z" fill="#2F901F"/>
<path d="M34.5 182C35.8807 182 37 183.119 37 184.5C37 185.881 35.8807 187 34.5 187C33.1193 187 32 185.881 32 184.5C32 183.119 33.1193 182 34.5 182ZM61.5 182C62.8807 182 64 183.119 64 184.5C64 185.881 62.8807 187 61.5 187C60.1193 187 59 185.881 59 184.5C59 183.119 60.1193 182 61.5 182ZM91.5 182C92.8807 182 94 183.119 94 184.5C94 185.881 92.8807 187 91.5 187C90.1193 187 89 185.881 89 184.5C89 183.119 90.1193 182 91.5 182ZM123.5 182C124.881 182 126 183.119 126 184.5C126 185.881 124.881 187 123.5 187C122.119 187 121 185.881 121 184.5C121 183.119 122.119 182 123.5 182ZM153.5 182C154.881 182 156 183.119 156 184.5C156 185.881 154.881 187 153.5 187C152.119 187 151 185.881 151 184.5C151 183.119 152.119 182 153.5 182ZM180.5 182C181.881 182 183 183.119 183 184.5C183 185.881 181.881 187 180.5 187C179.119 187 178 185.881 178 184.5C178 183.119 179.119 182 180.5 182ZM34.5 154C35.8807 154 37 155.119 37 156.5C37 157.881 35.8807 159 34.5 159C33.1193 159 32 157.881 32 156.5C32 155.119 33.1193 154 34.5 154ZM61.5 154C62.8807 154 64 155.119 64 156.5C64 157.881 62.8807 159 61.5 159C60.1193 159 59 157.881 59 156.5C59 155.119 60.1193 154 61.5 154ZM91.5 154C92.8807 154 94 155.119 94 156.5C94 157.881 92.8807 159 91.5 159C90.1193 159 89 157.881 89 156.5C89 155.119 90.1193 154 91.5 154ZM123.5 154C124.881 154 126 155.119 126 156.5C126 157.881 124.881 159 123.5 159C122.119 159 121 157.881 121 156.5C121 155.119 122.119 154 123.5 154ZM153.5 154C154.881 154 156 155.119 156 156.5C156 157.881 154.881 159 153.5 159C152.119 159 151 157.881 151 156.5C151 155.119 152.119 154 153.5 154ZM180.5 154C181.881 154 183 155.119 183 156.5C183 157.881 181.881 159 180.5 159C179.119 159 178 157.881 178 156.5C178 155.119 179.119 154 180.5 154ZM34.5 124C35.8807 124 37 125.119 37 126.5C37 127.881 35.8807 129 34.5 129C33.1193 129 32 127.881 32 126.5C32 125.119 33.1193 124 34.5 124ZM61.5 124C62.8807 124 64 125.119 64 126.5C64 127.881 62.8807 129 61.5 129C60.1193 129 59 127.881 59 126.5C59 125.119 60.1193 124 61.5 124ZM91.5 124C92.8807 124 94 125.119 94 126.5C94 127.881 92.8807 129 91.5 129C90.1193 129 89 127.881 89 126.5C89 125.119 90.1193 124 91.5 124ZM123.5 124C124.881 124 126 125.119 126 126.5C126 127.881 124.881 129 123.5 129C122.119 129 121 127.881 121 126.5C121 125.119 122.119 124 123.5 124ZM153.5 124C154.881 124 156 125.119 156 126.5C156 127.881 154.881 129 153.5 129C152.119 129 151 127.881 151 126.5C151 125.119 152.119 124 153.5 124ZM180.5 124C181.881 124 183 125.119 183 126.5C183 127.881 181.881 129 180.5 129C179.119 129 178 127.881 178 126.5C178 125.119 179.119 124 180.5 124ZM34.5 94C35.8807 94 37 95.1193 37 96.5C37 97.8807 35.8807 99 34.5 99C33.1193 99 32 97.8807 32 96.5C32 95.1193 33.1193 94 34.5 94ZM153.5 94C154.881 94 156 95.1193 156 96.5C156 97.8807 154.881 99 153.5 99C152.119 99 151 97.8807 151 96.5C151 95.1193 152.119 94 153.5 94ZM91.5 94C92.8807 94 94 95.1193 94 96.5C94 97.8807 92.8807 99 91.5 99C90.1193 99 89 97.8807 89 96.5C89 95.1193 90.1193 94 91.5 94ZM180.5 94C181.881 94 183 95.1193 183 96.5C183 97.8807 181.881 99 180.5 99C179.119 99 178 97.8807 178 96.5C178 95.1193 179.119 94 180.5 94ZM61.5 94C62.8807 94 64 95.1193 64 96.5C64 97.8807 62.8807 99 61.5 99C60.1193 99 59 97.8807 59 96.5C59 95.1193 60.1193 94 61.5 94ZM123.5 94C124.881 94 126 95.1193 126 96.5C126 97.8807 124.881 99 123.5 99C122.119 99 121 97.8807 121 96.5C121 95.1193 122.119 94 123.5 94ZM34.5 64C35.8807 64 37 65.1193 37 66.5C37 67.8807 35.8807 69 34.5 69C33.1193 69 32 67.8807 32 66.5C32 65.1193 33.1193 64 34.5 64ZM61.5 64C62.8807 64 64 65.1193 64 66.5C64 67.8807 62.8807 69 61.5 69C60.1193 69 59 67.8807 59 66.5C59 65.1193 60.1193 64 61.5 64ZM91.5 64C92.8807 64 94 65.1193 94 66.5C94 67.8807 92.8807 69 91.5 69C90.1193 69 89 67.8807 89 66.5C89 65.1193 90.1193 64 91.5 64ZM123.5 64C124.881 64 126 65.1193 126 66.5C126 67.8807 124.881 69 123.5 69C122.119 69 121 67.8807 121 66.5C121 65.1193 122.119 64 123.5 64ZM153.5 64C154.881 64 156 65.1193 156 66.5C156 67.8807 154.881 69 153.5 69C152.119 69 151 67.8807 151 66.5C151 65.1193 152.119 64 153.5 64ZM180.5 64C181.881 64 183 65.1193 183 66.5C183 67.8807 181.881 69 180.5 69C179.119 69 178 67.8807 178 66.5C178 65.1193 179.119 64 180.5 64ZM34.5 37C35.8807 37 37 38.1193 37 39.5C37 40.8807 35.8807 42 34.5 42C33.1193 42 32 40.8807 32 39.5C32 38.1193 33.1193 37 34.5 37ZM61.5 37C62.8807 37 64 38.1193 64 39.5C64 40.8807 62.8807 42 61.5 42C60.1193 42 59 40.8807 59 39.5C59 38.1193 60.1193 37 61.5 37ZM91.5 37C92.8807 37 94 38.1193 94 39.5C94 40.8807 92.8807 42 91.5 42C90.1193 42 89 40.8807 89 39.5C89 38.1193 90.1193 37 91.5 37ZM123.5 37C124.881 37 126 38.1193 126 39.5C126 40.8807 124.881 42 123.5 42C122.119 42 121 40.8807 121 39.5C121 38.1193 122.119 37 123.5 37ZM153.5 37C154.881 37 156 38.1193 156 39.5C156 40.8807 154.881 42 153.5 42C152.119 42 151 40.8807 151 39.5C151 38.1193 152.119 37 153.5 37ZM180.5 37C181.881 37 183 38.1193 183 39.5C183 40.8807 181.881 42 180.5 42C179.119 42 178 40.8807 178 39.5C178 38.1193 179.119 37 180.5 37Z" fill="white" fill-opacity="0.6"/>
</g>
</g>
<defs>
<filter id="filter0_d_6_3" x="-4" y="0" width="251" height="248" filterUnits="userSpaceOnUse" color-interpolation-filters="sRGB">
<feFlood flood-opacity="0" result="BackgroundImageFix"/>
<feColorMatrix in="SourceAlpha" type="matrix" values="0 0 0 0 0 0 0 0 0 0 0 0 0 0 0 0 0 0 127 0" result="hardAlpha"/>
<feOffset dy="4"/>
<feGaussianBlur stdDeviation="2"/>
<feComposite in2="hardAlpha" operator="out"/>
<feColorMatrix type="matrix" values="0 0 0 0 0 0 0 0 0 0 0 0 0 0 0 0 0 0 0.25 0"/>
<feBlend mode="normal" in2="BackgroundImageFix" result="effect1_dropShadow_6_3"/>
<feBlend mode="normal" in="SourceGraphic" in2="effect1_dropShadow_6_3" result="shape"/>
</filter>
<clipPath id="clip0_6_3">
<rect width="243" height="240" fill="white"/>
</clipPath>
</defs>
</svg>
